<svg xmlns="http://www.w3.org/2000/svg" width="240" height="240" viewBox="0 0 240 240"><path fill="#FFF" d="M10.67 178.5l-.002-.006L77.664 51.072 98.55 90.198 140.3 12l87.87 166.475-.016.026H217.51L140.27 32.154l-41.72 78.143-20.845-39.044-56.39 107.25H10.67zm16.134 42.434h-.088l-2.064-22.102h-10.15L8 229.5h5.844l5.623-25.396h.088l2.46 25.396h5.888l13.884-25.396h.088l-5.8 25.396h6.503l6.547-30.668H38.887l-12.083 22.102zm39.37-2.68c-.747 3.383-2.24 7.205-6.327 7.205-1.89 0-3.207-1.274-3.207-3.165 0-1.67.35-3.207.66-4.744l2.195-10.677h-5.888l-2.373 10.984c-.308 1.406-.747 3.207-.747 4.922 0 4.478 2.943 7.247 7.38 7.247 2.55 0 4.79-1.23 6.416-2.723h.088l-.395 2.194h5.756c.09-.703.308-1.892.572-3.25l4.177-19.377H68.59l-2.417 11.384zm11.992-4.703c0 5.67 7.645 6.02 7.645 9.668 0 1.845-2.064 2.505-4.04 2.505-2.286 0-3.956-.836-5.625-1.76l-1.274 4.702c2.153 1.01 4.526 1.362 6.9 1.362 5.05 0 10.19-1.758 10.19-7.646 0-5.534-7.644-6.59-7.644-9.444 0-1.803 2.198-2.285 3.955-2.285 1.67 0 3.297.484 4.834 1.058l1.274-4.438c-2.064-.527-4.26-.924-6.414-.924-4.657 0-9.798 1.89-9.798 7.205zm38.707-.22c0 3.03-2.24 11.908-2.768 16.17h-4.964l.615-3.473h-.088c-2.02 2.55-4.043 4-7.293 4-4.087 0-6.987-2.284-6.987-6.46 0-7.47 8.35-8.04 13.885-8.04h2.065c.176-.615.176-1.274.176-1.935 0-2.284-2.46-2.942-4.526-2.942-2.592 0-5.096.658-7.425 1.76l.834-4.702c2.505-.88 5.053-1.362 7.69-1.362 4.525 0 8.787 1.67 8.787 6.985zm-6.195 5.713h-2.064c-2.856 0-7.6.484-7.6 4.307 0 1.582 1.493 2.373 2.986 2.373 4.394 0 5.756-3.034 6.678-6.68zm16.125-22.495l-6.985 32.952h5.887l6.986-32.952h-5.887zm26.715 16.783c0 3.03-2.242 11.908-2.77 16.17h-4.965l.615-3.473h-.088c-2.02 2.55-4.04 4-7.293 4-4.086 0-6.985-2.284-6.985-6.46 0-7.47 8.35-8.04 13.885-8.04h2.063c.177-.615.177-1.274.177-1.935 0-2.284-2.462-2.942-4.525-2.942-2.592 0-5.096.658-7.426 1.76l.836-4.702c2.503-.88 5.052-1.362 7.688-1.362 4.526 0 8.788 1.67 8.788 6.985zm-6.196 5.713h-2.064c-2.857 0-7.602.484-7.602 4.307 0 1.582 1.494 2.373 2.986 2.373 4.395 0 5.756-3.034 6.68-6.68zm13.533-12.17c0 7.074 11.29 7.602 11.29 13.973 0 4.745-4.394 6.547-8.52 6.547-2.197 0-4.747-.703-6.548-1.934l-.925 2.897c1.363.748 3.736 1.67 7.734 1.67 5.58 0 11.29-3.338 11.29-9.577 0-7.91-11.29-8.48-11.29-13.796 0-4.13 3.952-5.713 7.336-5.713 2.153 0 4.307.526 6.194 1.495l.924-2.77c-2.153-.922-4.524-1.36-7.118-1.36-5.402.002-10.367 2.593-10.367 8.568zm39.763 9.313c0 7.472-4.702 13.842-12.435 13.842-5.537 0-8.963-4.176-8.963-9.754 0-7.512 4.877-13.71 12.477-13.71 5.714 0 8.92 3.823 8.92 9.622zm-3.032.046c0-4.22-1.89-7.295-6.238-7.295-6.195 0-9.096 6.063-9.096 11.774 0 3.867 2.373 6.94 6.283 6.943 5.8.003 9.05-6.15 9.05-11.42zm27.62-6.767h5.757l.572-2.372h-5.844l1.362-6.106-3.164 1.1-1.057 5.01h-9.958l.354-1.67c.748-3.56 1.54-7.03 4.834-7.03 1.316 0 2.02.353 2.238.44l.66-2.33c-1.012-.396-2.02-.48-3.076-.48-5.23 0-6.59 4.964-7.426 8.83l-.48 2.24h-4.79l-.57 2.372h4.833l-4.308 20.034h2.898l4.307-20.035h9.96l-2.153 9.93c-.22.968-1.01 4.524-1.01 6.458 0 2.418 1.758 4.176 4.877 4.176 1.144 0 1.978-.22 2.814-.615l.262-2.373a4.675 4.675 0 0 1-2.37.615c-1.628 0-2.55-.968-2.55-2.726 0-1.45.352-2.9.658-4.395l2.373-11.075zm-189.532-20.8h140.582c10.99-10.455 16.994-21.65 16.994-29.942 0-30.867-100.93-29.02-100.93-36.396 0-3.946 22.21-8.73 53.457-11.43v-.6c-41.854 1.073-87.445 6.05-87.445 13.413 0 9.674 66.943 11.98 66.943 24.877 0 7.37-27.806 19.81-89.6 40.08z"/></svg>